<?xml version="1.0" encoding="UTF-8" standalone="no"?>
<!-- Created with Inkscape (http://www.inkscape.org/) -->

<svg
   width="46.288857mm"
   height="45.213451mm"
   viewBox="0 0 46.288857 45.213451"
   version="1.1"
   id="svg215"
   sodipodi:docname="bus.svg"
   inkscape:version="1.2.2 (b0a8486541, 2022-12-01)"
   xmlns:inkscape="http://www.inkscape.org/namespaces/inkscape"
   xmlns:sodipodi="http://sodipodi.sourceforge.net/DTD/sodipodi-0.dtd"
   xmlns="http://www.w3.org/2000/svg"
   xmlns:svg="http://www.w3.org/2000/svg">
  <sodipodi:namedview
     id="namedview217"
     pagecolor="#ffffff"
     bordercolor="#000000"
     borderopacity="0.25"
     inkscape:showpageshadow="2"
     inkscape:pageopacity="0.0"
     inkscape:pagecheckerboard="0"
     inkscape:deskcolor="#d1d1d1"
     inkscape:document-units="mm"
     showgrid="false"
     inkscape:zoom="3.2279264"
     inkscape:cx="108.89344"
     inkscape:cy="85.194012"
     inkscape:window-width="1920"
     inkscape:window-height="1021"
     inkscape:window-x="0"
     inkscape:window-y="0"
     inkscape:window-maximized="1"
     inkscape:current-layer="layer1" />
  <defs
     id="defs212" />
  <g
     inkscape:label="Layer 1"
     inkscape:groupmode="layer"
     id="layer1"
     transform="translate(-60.905514,-131.2868)">
    <g
       id="g6837">
      <path
         id="rect522-6-3"
         style="fill:#4d4d4d;stroke-width:0.176292"
         d="m 65.777919,164.61291 v 11.79618 h 0.544153 v -11.79618 z m 0.96635,0 v 11.79618 h 0.5302 v -11.79618 z m 0.952913,0 v 11.79618 h 0.42168 c 0.05675,0 0.112798,-0.003 0.168465,-0.007 v -11.78274 c -0.05567,-0.004 -0.11172,-0.007 -0.168465,-0.007 z m -2.341459,0.0382 c -0.196679,0.0362 -0.384406,0.0973 -0.559656,0.18035 v 11.359 c 0.175253,0.0831 0.362979,0.14411 0.559656,0.18035 z m 3.3538,0.0403 v 11.63908 c 0.160591,-0.0431 0.314529,-0.10219 0.458887,-0.17725 v -11.28458 c -0.144358,-0.0751 -0.298296,-0.13418 -0.458887,-0.17725 z m -4.335652,0.40049 c -0.531939,0.41482 -0.872815,1.06177 -0.872815,1.79162 v 7.25486 c 0,0.72973 0.340958,1.37679 0.872815,1.79162 z m 5.216736,0.0605 v 10.71718 c 0.489168,-0.41588 0.798917,-1.03596 0.798917,-1.73116 v -7.25486 c 0,-0.69523 -0.309749,-1.31528 -0.798917,-1.73116 z" />
      <path
         id="rect522-6-3-8"
         style="fill:#4d4d4d;stroke-width:0.176292"
         d="m 100.02227,164.70407 v 11.79618 h 0.54415 v -11.79618 z m 0.96635,0 v 11.79618 h 0.5302 v -11.79618 z m 0.95291,0 v 11.79618 h 0.42168 c 0.0567,0 0.1128,-0.003 0.16846,-0.007 v -11.78246 c -0.0557,-0.004 -0.11172,-0.007 -0.16846,-0.007 z m -2.34146,0.0382 c -0.196679,0.0362 -0.384406,0.0973 -0.559656,0.18035 v 11.359 c 0.175253,0.0831 0.362979,0.14411 0.559656,0.18035 z m 3.3538,0.0403 v 11.63908 c 0.16059,-0.0431 0.31453,-0.10219 0.45889,-0.17725 v -11.28458 c -0.14436,-0.0751 -0.2983,-0.13418 -0.45889,-0.17725 z m -4.335652,0.40049 c -0.531939,0.41482 -0.872815,1.06177 -0.872815,1.79162 v 7.25486 c 0,0.72973 0.340958,1.37679 0.872815,1.79162 z m 5.216732,0.0605 v 10.71718 c 0.48917,-0.41588 0.79892,-1.03596 0.79892,-1.73116 v -7.25486 c 0,-0.69523 -0.30975,-1.31528 -0.79892,-1.73116 z" />
      <path
         id="rect111"
         style="fill:#008000;stroke-width:0.247273"
         d="m 64.800405,131.2868 h 38.499075 c 2.15776,0 3.89489,1.73713 3.89489,3.8949 v 32.64016 c 0,2.15777 -1.73713,3.89489 -3.89489,3.89489 H 64.800405 c -2.15777,0 -3.894891,-1.73712 -3.894891,-3.89489 V 135.1817 c 0,-2.15777 1.737121,-3.8949 3.894891,-3.8949 z" />
      <path
         id="path375-3"
         style="fill:#ffffff;stroke-width:0.264583"
         d="m 104.50291,160.17313 a 3.3132703,3.3132703 0 0 1 -3.31327,3.31327 3.3132703,3.3132703 0 0 1 -3.313274,-3.31327 3.3132703,3.3132703 0 0 1 3.313274,-3.31327 3.3132703,3.3132703 0 0 1 3.31327,3.31327 z" />
      <path
         id="rect269"
         style="fill:#ffffff;stroke-width:0.264583"
         d="m 67.994898,133.56758 h 32.110082 c 2.47046,0 4.45932,1.98886 4.45932,4.45932 v 8.38558 c 0,2.47047 -1.98886,4.45932 -4.45932,4.45932 H 67.994898 c -2.470462,0 -4.459318,-1.98885 -4.459318,-4.45932 v -8.38558 c 0,-2.47046 1.988856,-4.45932 4.459318,-4.45932 z" />
      <path
         id="path375"
         style="fill:#ffffff;stroke-width:0.264583"
         d="m 70.25856,160.33025 a 3.3132703,3.3132703 0 0 1 -3.31327,3.31327 3.3132703,3.3132703 0 0 1 -3.313271,-3.31327 3.3132703,3.3132703 0 0 1 3.313271,-3.31327 3.3132703,3.3132703 0 0 1 3.31327,3.31327 z" />
      <g
         aria-label="THE"
         id="text463"
         style="font-size:14.1111px;fill:#ffffff;stroke-width:0.264583">
        <path
           d="m 78.687716,138.8542 h -1.933221 v 8.57955 h -1.93322 v -8.57955 h -1.933221 v -1.84856 h 5.799662 z"
           style="font-weight:bold;font-family:'Gothic Uralic';-inkscape-font-specification:'Gothic Uralic';fill:#008000"
           id="path6877" />
        <path
           d="m 87.267266,147.43375 h -1.933221 v -4.37444 h -3.72533 v 4.37444 h -1.933221 v -10.42811 h 1.933221 v 4.20511 h 3.72533 v -4.20511 h 1.933221 z"
           style="font-weight:bold;font-family:'Gothic Uralic';-inkscape-font-specification:'Gothic Uralic';fill:#008000"
           id="path6879" />
        <path
           d="m 94.873153,147.43375 h -5.602107 v -10.42811 h 5.602107 v 1.84856 h -3.668886 v 2.45533 h 3.513664 v 1.84855 h -3.513664 v 2.42711 h 3.668886 z"
           style="font-weight:bold;font-family:'Gothic Uralic';-inkscape-font-specification:'Gothic Uralic';fill:#008000"
           id="path6881" />
      </g>
      <g
         aria-label="BUS"
         id="text677"
         style="font-size:14.1111px;font-family:'Gothic Uralic';-inkscape-font-specification:'Gothic Uralic';fill:#ffffff;stroke-width:0.264583">
        <path
           d="m 79.27103,162.39388 q 0,0.80433 -0.352778,1.46755 -0.874888,1.63689 -3.640663,1.63689 h -2.779887 v -10.4281 h 2.229554 q 1.044221,0 1.679221,0.11289 1.03011,0.18344 1.636887,0.90311 0.606777,0.71966 0.606777,1.76389 0,1.36877 -1.15711,1.96144 0.508,0.21166 0.776111,0.39511 1.001888,0.69144 1.001888,2.18722 z m -2.554109,-4.37444 q 0,-1.05833 -1.495777,-1.05833 h -0.790221 v 2.13077 h 0.620888 q 1.66511,0 1.66511,-1.07244 z m 0.606777,4.33211 q 0,-1.36878 -1.975554,-1.36878 h -0.917221 v 2.667 h 0.959554 q 1.933221,0 1.933221,-1.29822 z"
           style="font-weight:bold"
           id="path6884" />
        <path
           d="m 87.723578,161.67421 q 0,0.91722 -0.155223,1.53811 -0.310444,1.15711 -1.241776,1.79211 -0.917222,0.635 -2.130776,0.635 -1.255888,0 -2.17311,-0.67733 -0.917221,-0.67733 -1.199443,-1.87678 -0.141111,-0.56444 -0.141111,-1.41111 v -6.60399 h 1.93322 v 6.60399 q 0,0.762 0.112889,1.11478 0.169333,0.55033 0.705555,0.83256 0.352778,0.19755 0.776111,0.19755 0.409222,0 0.77611,-0.19755 0.522111,-0.26812 0.691444,-0.83256 0.112889,-0.36689 0.112889,-1.11478 v -6.60399 h 1.933221 z"
           style="font-weight:bold"
           id="path6886" />
        <path
           d="m 95.710452,162.33744 q 0,1.42522 -0.959555,2.37066 -0.945444,0.93133 -2.370665,0.93133 -1.100666,0 -1.961443,-0.52211 -0.917221,-0.55033 -1.255888,-1.55222 -0.155222,-0.42333 -0.211666,-1.04422 h 2.017887 q 0.127,1.29822 1.41111,1.29822 0.606777,0 1.001888,-0.33867 0.409222,-0.33866 0.409222,-0.93133 0,-0.69144 -0.479777,-1.05833 -0.310445,-0.23989 -1.806221,-0.80433 -2.17311,-0.81845 -2.17311,-2.83633 0,-1.24178 0.889,-2.10256 0.90311,-0.86078 2.144887,-0.86078 0.973666,0 1.777999,0.52211 0.818443,0.52212 1.142999,1.41111 0.141111,0.43745 0.169333,1.03012 h -2.003776 q -0.08467,-1.10067 -1.100666,-1.10067 -0.479778,0 -0.776111,0.29633 -0.296333,0.28222 -0.296333,0.762 0,0.762 1.15711,1.18533 0.409222,0.15523 1.227666,0.47978 0.691444,0.29633 1.114777,0.69145 0.931333,0.87488 0.931333,2.17311 z"
           style="font-weight:bold"
           id="path6888" />
      </g>
    </g>
  </g>
</svg>
