<?xml version="1.0" encoding="UTF-8" standalone="no"?>
<!-- Created with Inkscape (http://www.inkscape.org/) -->

<svg
   width="49.763634mm"
   height="46.089001mm"
   viewBox="0 0 49.763634 46.089001"
   version="1.1"
   id="svg215"
   sodipodi:docname="bus_angled.svg"
   inkscape:version="1.2.2 (b0a8486541, 2022-12-01)"
   xmlns:inkscape="http://www.inkscape.org/namespaces/inkscape"
   xmlns:sodipodi="http://sodipodi.sourceforge.net/DTD/sodipodi-0.dtd"
   xmlns="http://www.w3.org/2000/svg"
   xmlns:svg="http://www.w3.org/2000/svg">
  <sodipodi:namedview
     id="namedview217"
     pagecolor="#ffffff"
     bordercolor="#000000"
     borderopacity="0.25"
     inkscape:showpageshadow="2"
     inkscape:pageopacity="0.0"
     inkscape:pagecheckerboard="0"
     inkscape:deskcolor="#d1d1d1"
     inkscape:document-units="mm"
     showgrid="false"
     inkscape:zoom="3.2279264"
     inkscape:cx="113.85018"
     inkscape:cy="86.123401"
     inkscape:window-width="1920"
     inkscape:window-height="1021"
     inkscape:window-x="0"
     inkscape:window-y="0"
     inkscape:window-maximized="1"
     inkscape:current-layer="layer1" />
  <defs
     id="defs212" />
  <g
     inkscape:label="Layer 1"
     inkscape:groupmode="layer"
     id="layer1"
     transform="translate(-59.484922,-131.027)">
    <g
       id="g6837">
      <path
         id="rect522-6-3"
         style="fill:#4d4d4d;stroke-width:0.176292"
         d="m 64.8546,164.281 -0.3926,12.835 0.5973,-0.003 0.3788,-12.834 z m 1.0362,-0.003 -0.3681,12.833 0.5819,-0.003 0.3547,-12.832 z m 1.0216,-0.004 -0.3439,12.832 0.4627,-0.002 c 0.0622,-0.001 0.1238,-0.004 0.185,-0.009 l 0.3286,-12.816 c -0.0595,-0.004 -0.1195,-0.007 -0.1804,-0.007 z m -2.5119,0.05 c -0.2122,0.039 -0.4156,0.104 -0.6065,0.193 l -0.4021,12.36 c 0.1894,0.092 0.3933,0.159 0.6079,0.198 z m 3.5949,0.03 -0.314,12.659 c 0.1773,-0.049 0.3477,-0.115 0.508,-0.2 l 0.2934,-12.272 c -0.1529,-0.079 -0.3164,-0.142 -0.4874,-0.187 z m -4.6638,0.442 c -0.5864,0.444 -0.977,1.137 -1.0045,1.919 l -0.277,7.894 c -0.0283,0.807 0.3204,1.523 0.8881,1.981 z m 5.5968,0.045 -0.2688,11.655 c 0.5461,-0.464 0.8999,-1.152 0.9164,-1.92 l 0.1696,-7.888 c 0.016,-0.745 -0.3023,-1.405 -0.8172,-1.847 z" />
      <path
         id="rect522-6-3-8"
         style="fill:#4d4d4d;stroke-width:0.176292"
         d="m 101.445,164.254 0.47,12.787 0.593,-0.003 -0.483,-12.786 z m 1.029,-0.004 0.494,12.786 0.578,-0.003 -0.508,-12.785 z m 1.014,-0.003 0.518,12.784 0.459,-0.002 c 0.062,-0.001 0.123,-0.004 0.183,-0.009 l -0.532,-12.768 c -0.059,-0.004 -0.119,-0.007 -0.179,-0.007 z m -2.491,0.049 c -0.208,0.039 -0.405,0.104 -0.589,0.193 l 0.429,12.314 c 0.194,0.091 0.401,0.158 0.617,0.197 z m 3.572,0.03 0.536,12.612 c 0.173,-0.048 0.337,-0.115 0.491,-0.198 l -0.531,-12.228 c -0.157,-0.079 -0.323,-0.141 -0.496,-0.186 z m -4.6014,0.441 c -0.5525,0.442 -0.894,1.132 -0.8688,1.911 l 0.2539,7.866 c 0.0259,0.803 0.42,1.516 1.0143,1.973 z m 5.5604,0.045 0.513,11.611 c 0.512,-0.462 0.817,-1.148 0.782,-1.913 l -0.36,-7.859 c -0.034,-0.741 -0.394,-1.4 -0.935,-1.839 z" />
      <path
         id="rect111"
         style="fill:#008000;stroke-width:0.247273"
         d="M 64.8878,131.027 H 103.5 c 2.155,0 3.971,1.625 4.075,3.659 l 1.668,32.861 c 0.118,2.321 -1.658,4.212 -3.985,4.222 l -41.7009,0.174 c -2.3477,0.01 -4.1625,-1.876 -4.0687,-4.21 l 1.3282,-33.029 c 0.0822,-2.044 1.898,-3.677 4.0712,-3.677 z" />
      <path
         id="path375-3"
         style="fill:#ffffff;stroke-width:0.264583"
         d="m 105.997,159.483 c 0.087,1.91 -1.417,3.474 -3.359,3.48 -0.933,0.003 -1.842,-0.362 -2.524,-1.013 -0.6803,-0.65 -1.0787,-1.53 -1.1085,-2.446 -0.0297,-0.913 0.3092,-1.787 0.9409,-2.43 0.6296,-0.642 1.5006,-1.003 2.4226,-1.006 1.918,-0.005 3.541,1.519 3.628,3.415 z" />
      <path
         id="rect269"
         style="fill:#ffffff;stroke-width:0.264583"
         d="m 68.047,133.172 32.339,-0.007 c 2.479,-0.001 4.56,1.877 4.667,4.229 l 0.372,8.148 c 0.112,2.449 -1.858,4.442 -4.418,4.447 l -33.4026,0.065 c -2.5794,0.005 -4.587,-1.989 -4.5008,-4.449 l 0.2865,-8.183 c 0.0828,-2.363 2.1599,-4.25 4.6569,-4.25 z" />
      <path
         id="path375"
         style="fill:#ffffff;stroke-width:0.264583"
         d="m 69.7555,159.753 c -0.0417,1.919 -1.6623,3.489 -3.6201,3.496 -0.9404,0.003 -1.8308,-0.363 -2.474,-1.018 -0.6417,-0.652 -0.9835,-1.537 -0.9514,-2.457 0.0319,-0.917 0.4326,-1.795 1.1127,-2.441 0.6783,-0.645 1.5803,-1.008 2.5087,-1.01 1.9327,-0.005 3.4656,1.525 3.4241,3.43 z" />
      <g
         aria-label="THE"
         id="text463"
         style="font-size:14.1111px;fill:#ffffff;stroke-width:0.264583">
        <path
           d="m 78.8139,138.206 -1.9687,0.002 -0.0752,8.389 -2.0014,0.003 0.1071,-8.391 -1.9703,0.001 0.0293,-1.773 5.8883,-0.003 z"
           style="font-weight:bold;font-family:'Gothic Uralic';-inkscape-font-specification:'Gothic Uralic';fill:#008000"
           id="path6877" />
        <path
           d="m 87.6396,146.58 -1.997,0.003 -0.0341,-4.307 -3.819,0.004 0.0025,4.309 -1.9994,0.003 0.0326,-10.159 1.9608,-0.001 0.0024,4.048 3.8059,-0.003 -0.0321,-4.047 1.9585,-0.001 z"
           style="font-weight:bold;font-family:'Gothic Uralic';-inkscape-font-specification:'Gothic Uralic';fill:#008000"
           id="path6879" />
        <path
           d="m 95.4887,146.567 -5.78,0.01 -0.1588,-10.149 5.6685,-0.003 0.0471,1.769 -3.7243,0.003 0.0461,2.37 3.5831,-0.004 0.0474,1.798 -3.5956,0.004 0.0463,2.381 3.7715,-0.006 z"
           style="font-weight:bold;font-family:'Gothic Uralic';-inkscape-font-specification:'Gothic Uralic';fill:#008000"
           id="path6881" />
      </g>
      <g
         aria-label="BUS"
         id="text677"
         style="font-size:14.1111px;font-family:'Gothic Uralic';-inkscape-font-specification:'Gothic Uralic';fill:#ffffff;stroke-width:0.264583">
        <path
           d="m 79.3129,161.888 c -0.0022,0.564 -0.1297,1.081 -0.3828,1.549 -0.6296,1.16 -1.9333,1.745 -3.9096,1.752 l -2.9811,0.01 0.1889,-10.891 2.3432,-0.006 c 0.7314,-0.002 1.319,0.035 1.7629,0.111 0.7204,0.124 1.2914,0.431 1.7134,0.922 0.4228,0.492 0.6326,1.097 0.6288,1.816 -0.0049,0.945 -0.4168,1.625 -1.2367,2.039 0.3579,0.146 0.6312,0.282 0.82,0.409 0.7059,0.48 1.0572,1.242 1.053,2.289 z m -2.6787,-4.557 c 0.0066,-0.729 -0.5157,-1.091 -1.5671,-1.088 l -0.8333,0.002 -0.0298,2.205 0.6574,-0.002 c 1.1752,-0.003 1.7661,-0.376 1.7728,-1.117 z m 0.6054,4.519 c 0.0075,-0.959 -0.6882,-1.435 -2.0876,-1.43 l -0.9747,0.002 -0.038,2.807 1.025,-0.003 c 1.3765,-0.005 2.0682,-0.464 2.0753,-1.376 z"
           style="font-weight:bold"
           id="path6884" />
        <path
           d="m 88.2941,161.104 c 0.0081,0.642 -0.0401,1.181 -0.1448,1.617 -0.2106,0.816 -0.6449,1.45 -1.3032,1.901 -0.6495,0.452 -1.4075,0.68 -2.2733,0.683 -0.8962,0.004 -1.6723,-0.234 -2.3274,-0.712 -0.654,-0.477 -1.0809,-1.138 -1.2809,-1.982 -0.0998,-0.397 -0.1493,-0.891 -0.1485,-1.484 l 0.0084,-6.84 2.0282,-0.005 0.0176,6.839 c 0.0014,0.533 0.0424,0.923 0.1232,1.171 0.1214,0.386 0.373,0.678 0.7548,0.876 0.2514,0.138 0.5277,0.207 0.8286,0.206 0.291,-0.001 0.5664,-0.072 0.8262,-0.212 0.3694,-0.19 0.6125,-0.483 0.7293,-0.88 0.0779,-0.258 0.1144,-0.649 0.1098,-1.172 l -0.0602,-6.836 2.026,-0.004 z"
           style="font-weight:bold"
           id="path6886" />
        <path
           d="m 96.7822,161.773 c 0.0282,1 -0.2886,1.835 -0.9519,2.504 -0.6553,0.661 -1.491,0.994 -2.5059,0.998 -0.784,0.002 -1.4862,-0.18 -2.1059,-0.548 -0.6595,-0.387 -1.1149,-0.934 -1.3665,-1.639 -0.1147,-0.297 -0.1954,-0.664 -0.2419,-1.099 l 2.1439,-0.007 c 0.1073,0.911 0.6169,1.366 1.5284,1.363 0.4306,-0.001 0.7833,-0.122 1.0579,-0.361 0.2844,-0.239 0.4214,-0.566 0.4112,-0.982 -0.0118,-0.484 -0.1904,-0.853 -0.5355,-1.108 -0.2232,-0.167 -0.8671,-0.446 -1.931,-0.835 -1.5432,-0.565 -2.3249,-1.546 -2.3468,-2.938 -0.0135,-0.854 0.2863,-1.575 0.8982,-2.165 0.6203,-0.588 1.3631,-0.883 2.2294,-0.885 0.6792,-0.002 1.3035,0.174 1.8736,0.529 0.5806,0.354 0.9928,0.835 1.2363,1.443 0.107,0.3 0.1761,0.653 0.2072,1.06 l -2.1077,0.006 c -0.0773,-0.756 -0.4715,-1.132 -1.1827,-1.131 -0.3359,0.001 -0.6055,0.104 -0.809,0.307 -0.2037,0.195 -0.3025,0.457 -0.296,0.787 0.0103,0.524 0.4249,0.932 1.2445,1.222 0.2901,0.107 0.7256,0.272 1.3067,0.495 0.4916,0.203 0.8901,0.442 1.1953,0.715 0.6728,0.606 1.0225,1.362 1.0482,2.269 z"
           style="font-weight:bold"
           id="path6888" />
      </g>
    </g>
  </g>
</svg>
